<?xml version="1.0" standalone="no"?>
<!-- Generator: Adobe Fireworks 10, Export SVG Extension by Aaron Beall (http://fireworks.abeall.com) . Version: 0.6.1  -->
<!DOCTYPE svg PUBLIC "-//W3C//DTD SVG 1.1//EN" "http://www.w3.org/Graphics/SVG/1.1/DTD/svg11.dtd">
<svg id="icons_prepinac.fw-Page%201" viewBox="0 0 60 270" style="background-color:#ffffff00" version="1.1"
	xmlns="http://www.w3.org/2000/svg" xmlns:xlink="http://www.w3.org/1999/xlink" xml:space="preserve"
	x="0px" y="0px" width="60px" height="270px"
>
	<g id="Background">
		<g>
			<path id="smoke" d="M 14.2383 166.4466 L 14.5711 164.8716 C 14.6649 164.2025 15.0844 162.5349 16.8797 161.4931 C 17.7305 161.0045 18.7441 160.7513 19.7965 160.7525 C 18.0633 158.8154 15.0633 158.2119 12.9528 159.4318 C 11.4938 160.2802 11.0648 161.6689 10.963 162.365 L 10.6301 163.9423 C 10.5316 164.6115 10.1156 166.279 8.3203 167.3208 C 7.4707 167.8107 6.457 168.0615 5.4 168.0602 C 7.1379 169.9997 10.1379 170.6044 12.2496 169.3809 C 13.7133 168.5313 14.1364 167.145 14.2383 166.4466 ZM 19.0418 169.6329 L 19.3746 168.0591 C 19.4684 167.39 19.8879 165.7212 21.6844 164.6782 C 22.5352 164.1907 23.5488 163.9365 24.6 163.9388 C 22.868 162.0005 19.8657 161.397 17.7562 162.6193 C 16.2985 163.4666 15.8696 164.854 15.7664 165.5524 L 15.4336 167.1286 C 15.3352 167.7978 14.9203 169.4653 13.1227 170.5071 C 12.2742 170.9958 11.2606 171.2466 10.2036 171.2454 C 11.9426 173.1848 14.9414 173.7895 17.0496 172.5661 C 18.5145 171.7188 18.941 170.3301 19.0418 169.6329 Z" fill="#3697d1"/>
		</g>
		<g>
			<path id="smoke2" d="M 44.2383 166.4466 L 44.5711 164.8716 C 44.6649 164.2025 45.0844 162.5349 46.8797 161.4931 C 47.7305 161.0045 48.7441 160.7513 49.7965 160.7525 C 48.0633 158.8154 45.0633 158.2119 42.9528 159.4318 C 41.4938 160.2802 41.0648 161.6689 40.963 162.365 L 40.6301 163.9423 C 40.5316 164.6115 40.1156 166.279 38.3203 167.3208 C 37.4707 167.8107 36.457 168.0615 35.4 168.0602 C 37.1379 169.9997 40.1379 170.6044 42.2496 169.3809 C 43.7133 168.5313 44.1364 167.145 44.2383 166.4466 ZM 49.0418 169.6329 L 49.3746 168.0591 C 49.4684 167.39 49.8879 165.7212 51.6844 164.6782 C 52.5352 164.1907 53.5488 163.9365 54.6 163.9388 C 52.868 162.0005 49.8657 161.397 47.7562 162.6193 C 46.2985 163.4666 45.8696 164.854 45.7664 165.5524 L 45.4336 167.1286 C 45.3352 167.7978 44.9203 169.4653 43.1227 170.5071 C 42.2742 170.9958 41.2606 171.2466 40.2036 171.2454 C 41.9426 173.1848 44.9414 173.7895 47.0496 172.5661 C 48.5145 171.7188 48.941 170.3301 49.0418 169.6329 Z" fill="#ffffff"/>
		</g>
		<g>
			<path id="rain_heavy" d="M 20.874 12.194 C 20.6467 12.194 20.4255 12.2222 20.2097 12.2607 L 20.2097 12.2607 C 19.757 10.3865 18.0798 8.99 16.0679 8.99 C 13.7088 8.99 11.796 10.9023 11.796 13.262 C 11.796 13.5572 11.5572 13.796 11.262 13.796 C 10.9668 13.796 10.728 13.5572 10.728 13.262 C 10.728 12.5977 10.8646 11.9677 11.0878 11.3805 C 10.6404 11.2209 10.1617 11.126 9.66 11.126 C 7.3008 11.126 5.3879 13.0383 5.3879 15.3981 C 5.3879 17.7578 7.3008 19.67 9.66 19.67 C 11.5237 19.67 19.2939 19.67 20.874 19.67 C 22.938 19.67 24.612 17.9966 24.612 15.932 C 24.612 13.8674 22.938 12.194 20.874 12.194 Z" fill="#3697d1"/>
		</g>
		<g>
			<path id="rain_heavy2" d="M 50.874 12.194 C 50.6467 12.194 50.4255 12.2222 50.2097 12.2607 L 50.2097 12.2607 C 49.757 10.3865 48.0798 8.99 46.0679 8.99 C 43.7088 8.99 41.796 10.9023 41.796 13.262 C 41.796 13.5572 41.5572 13.796 41.262 13.796 C 40.9668 13.796 40.728 13.5572 40.728 13.262 C 40.728 12.5977 40.8646 11.9677 41.0878 11.3805 C 40.6404 11.2209 40.1617 11.126 39.66 11.126 C 37.3008 11.126 35.3879 13.0383 35.3879 15.3981 C 35.3879 17.7578 37.3008 19.67 39.66 19.67 C 41.5237 19.67 49.2939 19.67 50.874 19.67 C 52.938 19.67 54.612 17.9966 54.612 15.932 C 54.612 13.8674 52.938 12.194 50.874 12.194 Z" fill="#ffffff"/>
		</g>
		<g>
			<path id="temperature_cool" d="M 16 107.9446 L 16 104 C 16 103.3368 15.8621 102.8 15.2 102.8 C 14.5367 102.8 14 103.3368 14 104 L 14 107.9446 C 13.2887 108.3618 12.8 109.1177 12.8 110.0001 C 12.8 111.3242 13.6746 112.4 15 112.4 C 16.3254 112.4 17.2 111.3242 17.2 110.0001 C 17.2 109.1177 16.7113 108.3606 16 107.9446 ZM 15 113.6001 C 13.0125 113.6001 11.8 111.9875 11.8 110.0001 C 11.8 108.9383 12.2687 107.9938 13 107.3352 L 13 98.8 C 13 97.4746 13.9235 96.25 15.25 96.25 C 16.5742 96.25 17 97.4746 17 98.8 L 17 107.3341 C 17.7313 107.9938 18.2 108.9383 18.2 110.0001 C 18.2 111.9875 16.9875 113.6001 15 113.6001 ZM 18 106.8559 L 18 98.8 C 18 96.8149 16.8351 95.05 14.85 95.05 C 12.8649 95.05 12 96.8149 12 98.8 L 12 106.8571 C 11.2617 107.7009 10.8 108.7918 10.8 110.0001 C 10.8 112.6497 12.3492 114.8001 15 114.8001 C 17.6508 114.8001 19.2 112.6497 19.2 110.0001 C 19.2 108.7907 18.7383 107.6996 18 106.8559 Z" fill="#3697d1"/>
		</g>
		<g>
			<path id="temperature_cool2" d="M 46 107.9446 L 46 104 C 46 103.3368 45.8621 102.8 45.2 102.8 C 44.5367 102.8 44 103.3368 44 104 L 44 107.9446 C 43.2887 108.3618 42.8 109.1177 42.8 110.0001 C 42.8 111.3242 43.6746 112.4 45 112.4 C 46.3254 112.4 47.2 111.3242 47.2 110.0001 C 47.2 109.1177 46.7113 108.3606 46 107.9446 ZM 45 113.6001 C 43.0125 113.6001 41.8 111.9875 41.8 110.0001 C 41.8 108.9383 42.2687 107.9938 43 107.3352 L 43 98.8 C 43 97.4746 43.9235 96.25 45.25 96.25 C 46.5742 96.25 47 97.4746 47 98.8 L 47 107.3341 C 47.7313 107.9938 48.2 108.9383 48.2 110.0001 C 48.2 111.9875 46.9875 113.6001 45 113.6001 ZM 48 106.8559 L 48 98.8 C 48 96.8149 46.8351 95.05 44.85 95.05 C 42.8649 95.05 42 96.8149 42 98.8 L 42 106.8571 C 41.2617 107.7009 40.8 108.7918 40.8 110.0001 C 40.8 112.6497 42.3492 114.8001 45 114.8001 C 47.6508 114.8001 49.2 112.6497 49.2 110.0001 C 49.2 108.7907 48.7383 107.6996 48 106.8559 Z" fill="#ffffff"/>
		</g>
		<g>
			<path id="rain" d="M 14.5 143 C 13.1884 143 12.125 141.6905 12.125 140.3288 C 12.125 139.8773 12.2502 139.4595 12.4543 139.0959 L 5.5937 139.0959 C 5.2655 139.0959 5 138.8202 5 138.4794 C 5 138.1387 5.2655 138.0685 5.5937 138.0685 L 14.5 138.0685 C 15.8116 138.0685 16.875 139.1726 16.875 140.5343 C 16.875 141.896 15.8116 143 14.5 143 ZM 19.25 139.3014 C 17.9384 139.3014 16.875 138.6083 16.875 137.2466 C 16.875 136.7952 17.0002 136.3773 17.2043 136.0137 L 5.5937 136.0137 C 5.2655 136.0137 5 136.3545 5 136.0137 C 5 135.6729 5.2655 134.9863 5.5937 134.9863 L 19.25 134.9863 C 20.5616 134.9863 21.625 136.0903 21.625 137.452 C 21.625 138.8137 20.5616 139.3014 19.25 139.3014 ZM 21.625 128 C 20.3135 128 19.25 129.3096 19.25 130.6712 C 19.25 131.1227 19.3753 131.5405 19.5794 131.9041 L 17.8445 131.9041 C 17.6856 132.3653 17.4456 132.5751 17.136 132.9315 L 21.625 132.9315 C 22.9366 132.9315 24 131.8275 24 130.4657 C 24 129.1041 22.9366 128 21.625 128 ZM 14.5 128 C 13.1884 128 12.125 129.3096 12.125 130.6712 C 12.125 131.1227 12.2502 131.5405 12.4543 131.9041 L 5.5937 131.9041 C 5.2655 131.9041 5 132.1798 5 132.5206 C 5 132.8613 5.2655 132.9315 5.5937 132.9315 L 14.5 132.9315 C 15.8116 132.9315 16.875 131.8275 16.875 130.4657 C 16.875 129.1041 15.8116 128 14.5 128 Z" fill="#3697d1"/>
		</g>
		<g>
			<path id="rain2" d="M 44.5 143 C 43.1884 143 42.125 141.6905 42.125 140.3288 C 42.125 139.8773 42.2502 139.4595 42.4543 139.0959 L 35.5937 139.0959 C 35.2655 139.0959 35 138.8202 35 138.4794 C 35 138.1387 35.2655 138.0685 35.5937 138.0685 L 44.5 138.0685 C 45.8116 138.0685 46.875 139.1726 46.875 140.5343 C 46.875 141.896 45.8116 143 44.5 143 ZM 49.25 139.3014 C 47.9384 139.3014 46.875 138.6083 46.875 137.2466 C 46.875 136.7952 47.0002 136.3773 47.2043 136.0137 L 35.5937 136.0137 C 35.2655 136.0137 35 136.3545 35 136.0137 C 35 135.6729 35.2655 134.9863 35.5937 134.9863 L 49.25 134.9863 C 50.5616 134.9863 51.625 136.0903 51.625 137.452 C 51.625 138.8137 50.5616 139.3014 49.25 139.3014 ZM 51.625 128 C 50.3135 128 49.25 129.3096 49.25 130.6712 C 49.25 131.1227 49.3753 131.5405 49.5794 131.9041 L 47.8445 131.9041 C 47.6856 132.3653 47.4456 132.5751 47.136 132.9315 L 51.625 132.9315 C 52.9366 132.9315 54 131.8275 54 130.4657 C 54 129.1041 52.9366 128 51.625 128 ZM 44.5 128 C 43.1884 128 42.125 129.3096 42.125 130.6712 C 42.125 131.1227 42.2502 131.5405 42.4543 131.9041 L 35.5937 131.9041 C 35.2655 131.9041 35 132.1798 35 132.5206 C 35 132.8613 35.2655 132.9315 35.5937 132.9315 L 44.5 132.9315 C 45.8116 132.9315 46.875 131.8275 46.875 130.4657 C 46.875 129.1041 45.8116 128 44.5 128 Z" fill="#ffffff"/>
		</g>
		<g>
			<path id="compass_northeast" d="M 15.0002 36.5999 C 12.8505 36.5999 10.7006 37.4203 9.0606 39.0609 C 5.7811 42.3398 5.78 47.6589 9.0606 50.939 C 10.7012 52.5797 12.8505 53.4 15.0009 53.4 C 17.1501 53.4 19.3005 52.5797 20.9399 50.9402 C 24.22 47.6602 24.2206 42.341 20.9399 39.0609 C 19.2999 37.4203 17.1501 36.5999 15.0002 36.5999 L 15.0002 36.5999 ZM 15.0009 37.8 L 15.0009 37.8 C 16.9239 37.8 18.7315 38.55 20.0915 39.9094 C 21.4514 41.2687 22.2003 43.0769 22.2003 45 C 22.2003 46.9242 21.4514 48.7324 20.0915 50.0918 C 18.7315 51.4512 16.9239 52.2 15.0009 52.2 C 13.0773 52.2 11.269 51.4512 9.9091 50.0906 C 8.5491 48.7312 7.8002 46.923 7.8002 45 C 7.8008 43.0769 8.5497 41.2687 9.9091 39.9094 C 11.269 38.55 13.0773 37.8 15.0009 37.8 L 15.0009 37.8 ZM 15.0067 46.4941 C 14.1776 46.4941 13.5073 45.8238 13.5061 44.9941 C 13.5085 44.1633 14.1799 43.4918 15.005 43.4953 C 15.8364 43.4941 16.5067 44.1644 16.5056 44.9953 C 16.5079 45.8203 15.837 46.4906 15.0067 46.4941 ZM 17.8561 46.0746 C 17.8561 46.0746 18.4221 44.7129 18.9929 41.0074 C 15.2874 41.5781 13.9257 42.1441 13.9257 42.1441 C 12.7145 42.5977 11.9299 43.718 11.9288 44.9929 C 11.9294 45.8156 12.2862 46.5855 12.851 47.1492 C 13.4153 47.7141 14.1846 48.0703 15.0073 48.0715 C 16.2834 48.0715 17.4032 47.2863 17.8561 46.0746 Z" fill="#3697d1"/>
		</g>
		<g>
			<path id="compass_northeast2" d="M 45.0002 36.5999 C 42.8505 36.5999 40.7006 37.4203 39.0606 39.0609 C 35.7811 42.3398 35.78 47.6589 39.0606 50.939 C 40.7012 52.5797 42.8505 53.4 45.0009 53.4 C 47.1501 53.4 49.3005 52.5797 50.9399 50.9402 C 54.22 47.6602 54.2206 42.341 50.9399 39.0609 C 49.2999 37.4203 47.1501 36.5999 45.0002 36.5999 L 45.0002 36.5999 ZM 45.0009 37.8 L 45.0009 37.8 C 46.9239 37.8 48.7315 38.55 50.0915 39.9094 C 51.4514 41.2687 52.2003 43.0769 52.2003 45 C 52.2003 46.9242 51.4514 48.7324 50.0915 50.0918 C 48.7315 51.4512 46.9239 52.2 45.0009 52.2 C 43.0773 52.2 41.269 51.4512 39.9091 50.0906 C 38.5491 48.7312 37.8002 46.923 37.8002 45 C 37.8008 43.0769 38.5497 41.2687 39.9091 39.9094 C 41.269 38.55 43.0773 37.8 45.0009 37.8 L 45.0009 37.8 ZM 45.0067 46.4941 C 44.1776 46.4941 43.5073 45.8238 43.5061 44.9941 C 43.5085 44.1633 44.1799 43.4918 45.005 43.4953 C 45.8364 43.4941 46.5067 44.1644 46.5056 44.9953 C 46.5079 45.8203 45.837 46.4906 45.0067 46.4941 ZM 47.8561 46.0746 C 47.8561 46.0746 48.4221 44.7129 48.9929 41.0074 C 45.2874 41.5781 43.9257 42.1441 43.9257 42.1441 C 42.7145 42.5977 41.9299 43.718 41.9288 44.9929 C 41.9294 45.8156 42.2862 46.5855 42.851 47.1492 C 43.4153 47.7141 44.1846 48.0703 45.0073 48.0715 C 46.2834 48.0715 47.4032 47.2863 47.8561 46.0746 Z" fill="#ffffff"/>
		</g>
		<g>
			<path id="lightning" d="M 24 73.0714 L 16.7143 73.0714 L 21.5714 67 L 13.0714 67 L 7 75.0952 L 13.0714 75.0952 L 7 84 L 24 73.0714 Z" fill="#3697d1"/>
		</g>
		<g>
			<path id="lightning2" d="M 54 73.0714 L 46.7143 73.0714 L 51.5714 67 L 43.0714 67 L 37 75.0952 L 43.0714 75.0952 L 37 84 L 54 73.0714 Z" fill="#ffffff"/>
		</g>
		<g>
			<path d="M 19.9 196.8 C 19.9 199.8929 17.4824 202.4 14.5 202.4 C 11.5176 202.4 9.1 199.8929 9.1 196.8 C 9.1 192.7865 13.7799 188.8667 14.5 185.6 C 15.2201 188.9599 19.9 192.6 19.9 196.8 Z" fill="#3697d1"/>
		</g>
		<g>
			<path d="M 49.9 196.8 C 49.9 199.8929 47.4824 202.4 44.5 202.4 C 41.5176 202.4 39.1 199.8929 39.1 196.8 C 39.1 192.7865 43.7799 188.8667 44.5 185.6 C 45.2201 188.9599 49.9 192.6 49.9 196.8 Z" fill="#ffffff"/>
		</g>
		<path d="M 14.5 258 L 10 262 L 13 262 L 13 264 L 16 264 L 16 262 L 19 262 L 14.5 258 Z" fill="#3697d1"/>
		<path d="M 44.5 258 L 40 262 L 43 262 L 43 264 L 46 264 L 46 262 L 49 262 L 44.5 258 Z" fill="#ffffff"/>
		<rect x="6" y="256" width="18" height="1" fill="#3697d1"/>
		<rect x="36" y="256" width="18" height="1" fill="#ffffff"/>
		<path id="Ellipse" d="M 8 253 C 8 252.4477 8.4477 252 9 252 C 9.5523 252 10 252.4477 10 253 C 10 253.5523 9.5523 254 9 254 C 8.4477 254 8 253.5523 8 253 Z" fill="#3697d1"/>
		<path id="Ellipse2" d="M 38 253 C 38 252.4477 38.4477 252 39 252 C 39.5523 252 40 252.4477 40 253 C 40 253.5523 39.5523 254 39 254 C 38.4477 254 38 253.5523 38 253 Z" fill="#ffffff"/>
		<path id="Ellipse3" d="M 11 249 C 11 248.4477 11.4477 248 12 248 C 12.5523 248 13 248.4477 13 249 C 13 249.5523 12.5523 250 12 250 C 11.4477 250 11 249.5523 11 249 Z" fill="#3697d1"/>
		<path id="Ellipse4" d="M 41 249 C 41 248.4477 41.4477 248 42 248 C 42.5523 248 43 248.4477 43 249 C 43 249.5523 42.5523 250 42 250 C 41.4477 250 41 249.5523 41 249 Z" fill="#ffffff"/>
		<path id="Ellipse5" d="M 13 252 C 13 251.4477 13.4477 251 14 251 C 14.5523 251 15 251.4477 15 252 C 15 252.5523 14.5523 253 14 253 C 13.4477 253 13 252.5523 13 252 Z" fill="#3697d1"/>
		<path id="Ellipse6" d="M 43 252 C 43 251.4477 43.4477 251 44 251 C 44.5523 251 45 251.4477 45 252 C 45 252.5523 44.5523 253 44 253 C 43.4477 253 43 252.5523 43 252 Z" fill="#ffffff"/>
		<path id="Ellipse7" d="M 7 249 C 7 248.4477 7.4477 248 8 248 C 8.5523 248 9 248.4477 9 249 C 9 249.5523 8.5523 250 8 250 C 7.4477 250 7 249.5523 7 249 Z" fill="#3697d1"/>
		<path id="Ellipse8" d="M 37 249 C 37 248.4477 37.4477 248 38 248 C 38.5523 248 39 248.4477 39 249 C 39 249.5523 38.5523 250 38 250 C 37.4477 250 37 249.5523 37 249 Z" fill="#ffffff"/>
		<path id="Ellipse9" d="M 15 248 C 15 247.4477 15.4477 247 16 247 C 16.5523 247 17 247.4477 17 248 C 17 248.5523 16.5523 249 16 249 C 15.4477 249 15 248.5523 15 248 Z" fill="#3697d1"/>
		<path id="Ellipse10" d="M 45 248 C 45 247.4477 45.4477 247 46 247 C 46.5523 247 47 247.4477 47 248 C 47 248.5523 46.5523 249 46 249 C 45.4477 249 45 248.5523 45 248 Z" fill="#ffffff"/>
		<path id="Ellipse11" d="M 18 253 C 18 252.4477 18.4477 252 19 252 C 19.5523 252 20 252.4477 20 253 C 20 253.5523 19.5523 254 19 254 C 18.4477 254 18 253.5523 18 253 Z" fill="#3697d1"/>
		<path id="Ellipse12" d="M 48 253 C 48 252.4477 48.4477 252 49 252 C 49.5523 252 50 252.4477 50 253 C 50 253.5523 49.5523 254 49 254 C 48.4477 254 48 253.5523 48 253 Z" fill="#ffffff"/>
		<path id="Ellipse13" d="M 22 251 C 22 250.4477 22.4477 250 23 250 C 23.5523 250 24 250.4477 24 251 C 24 251.5523 23.5523 252 23 252 C 22.4477 252 22 251.5523 22 251 Z" fill="#3697d1"/>
		<path id="Ellipse14" d="M 52 251 C 52 250.4477 52.4477 250 53 250 C 53.5523 250 54 250.4477 54 251 C 54 251.5523 53.5523 252 53 252 C 52.4477 252 52 251.5523 52 251 Z" fill="#ffffff"/>
		<path id="Ellipse15" d="M 18 249 C 18 248.4477 18.4477 248 19 248 C 19.5523 248 20 248.4477 20 249 C 20 249.5523 19.5523 250 19 250 C 18.4477 250 18 249.5523 18 249 Z" fill="#3697d1"/>
		<path id="Ellipse16" d="M 48 249 C 48 248.4477 48.4477 248 49 248 C 49.5523 248 50 248.4477 50 249 C 50 249.5523 49.5523 250 49 250 C 48.4477 250 48 249.5523 48 249 Z" fill="#ffffff"/>
		<path d="M 14.9624 234.6209 C 15.3434 234.6209 15.6523 234.312 15.6523 233.931 L 15.6507 230.7673 L 17.234 232.3493 C 17.3688 232.484 17.5453 232.5514 17.7218 232.5514 C 17.8983 232.5514 18.0748 232.484 18.2095 232.3493 C 18.479 232.0798 18.479 231.6432 18.2095 231.3738 L 15.6507 228.8181 L 15.6507 226.1581 L 17.9553 227.4864 L 18.8906 230.9803 C 18.9731 231.2886 19.2517 231.492 19.5565 231.492 C 19.6155 231.492 19.6754 231.4843 19.7354 231.4681 C 20.1036 231.3698 20.3218 230.9915 20.2231 230.6233 L 19.6458 228.4627 L 22.3839 230.0446 C 22.4927 230.1073 22.6113 230.1369 22.7282 230.1369 C 22.9667 230.1369 23.1984 230.0133 23.3264 229.792 C 23.5167 229.4619 23.4039 229.0402 23.0738 228.8495 L 20.3358 227.269 L 22.4948 226.6891 C 22.8629 226.5907 23.0812 226.2124 22.9825 225.8443 C 22.8838 225.4761 22.5076 225.2568 22.1377 225.3565 L 18.6453 226.2927 L 16.3442 224.9644 L 18.6488 223.6362 L 22.1377 224.5697 C 22.1977 224.5858 22.2576 224.5936 22.3166 224.5936 C 22.6211 224.5936 22.9 224.3901 22.9825 224.0819 C 23.0812 223.7138 22.8629 223.3355 22.4948 223.2371 L 20.3358 222.6598 L 23.0738 221.0767 C 23.4039 220.886 23.5167 220.4643 23.3264 220.1342 C 23.1354 219.8041 22.713 219.6909 22.3839 219.8816 L 19.6458 221.4627 L 20.2231 219.3029 C 20.3218 218.9347 20.1036 218.5564 19.7354 218.4581 C 19.3645 218.3574 18.989 218.578 18.8906 218.9458 L 17.9553 222.439 L 15.6507 223.7707 L 15.6507 221.1107 L 18.2095 218.5524 C 18.479 218.2829 18.479 217.8464 18.2095 217.5769 C 17.94 217.3074 17.5035 217.3074 17.234 217.5769 L 15.6507 219.1581 L 15.6523 215.9951 C 15.6523 215.6142 15.3434 215.3053 14.9624 215.3053 C 14.5815 215.3053 14.2726 215.6142 14.2726 215.9951 L 14.2742 219.1581 L 12.6908 217.5769 C 12.4213 217.3074 11.9848 217.3074 11.7153 217.5769 C 11.4458 217.8464 11.4458 218.2829 11.7153 218.5524 L 14.2742 221.1107 L 14.2742 223.7707 L 11.9696 222.439 L 11.0342 218.9458 C 10.9355 218.578 10.5586 218.3574 10.1894 218.4581 C 9.8213 218.5564 9.603 218.9347 9.7017 219.3029 L 10.2791 221.4627 L 7.5409 219.8816 C 7.2101 219.6909 6.7894 219.8041 6.5984 220.1342 C 6.4081 220.4643 6.5209 220.886 6.851 221.0767 L 9.5925 222.6598 L 7.43 223.2371 C 7.0619 223.3355 6.8436 223.7138 6.9423 224.0819 C 7.0248 224.3901 7.3034 224.5936 7.6082 224.5936 C 7.6672 224.5936 7.7271 224.5858 7.7871 224.5697 L 11.2796 223.6327 L 13.5842 224.9644 L 11.2796 226.2927 L 7.7871 225.3565 C 7.4173 225.2572 7.0407 225.4764 6.9423 225.8443 C 6.8436 226.2124 7.0619 226.5907 7.43 226.6891 L 9.5891 227.269 L 6.851 228.8495 C 6.5209 229.0402 6.4081 229.4619 6.5984 229.792 C 6.7264 230.0133 6.9581 230.1369 7.1966 230.1369 C 7.3135 230.1369 7.4324 230.1073 7.5409 230.0446 L 10.2791 228.4662 L 9.7017 230.6233 C 9.603 230.9915 9.8213 231.3698 10.1894 231.4681 C 10.2494 231.4843 10.3093 231.492 10.3683 231.492 C 10.6731 231.492 10.9517 231.2886 11.0342 230.9803 L 11.9696 227.4898 L 14.2742 226.1581 L 14.2742 228.8181 L 11.7153 231.3738 C 11.4458 231.6432 11.4458 232.0798 11.7153 232.3493 C 11.9848 232.6187 12.4213 232.6187 12.6908 232.3493 L 14.2742 230.7673 L 14.2726 233.931 C 14.2726 234.312 14.5815 234.6209 14.9624 234.6209 Z" fill="#3697d1"/>
		<path d="M 44.9624 234.6209 C 45.3434 234.6209 45.6523 234.312 45.6523 233.931 L 45.6507 230.7673 L 47.234 232.3493 C 47.3688 232.484 47.5453 232.5514 47.7218 232.5514 C 47.8983 232.5514 48.0748 232.484 48.2095 232.3493 C 48.479 232.0798 48.479 231.6432 48.2095 231.3738 L 45.6507 228.8181 L 45.6507 226.1581 L 47.9553 227.4864 L 48.8906 230.9803 C 48.9731 231.2886 49.2517 231.492 49.5565 231.492 C 49.6155 231.492 49.6754 231.4843 49.7354 231.4681 C 50.1036 231.3698 50.3218 230.9915 50.2231 230.6233 L 49.6458 228.4627 L 52.3839 230.0446 C 52.4927 230.1073 52.6113 230.1369 52.7282 230.1369 C 52.9667 230.1369 53.1984 230.0133 53.3264 229.792 C 53.5167 229.4619 53.4039 229.0402 53.0738 228.8495 L 50.3358 227.269 L 52.4948 226.6891 C 52.8629 226.5907 53.0812 226.2124 52.9825 225.8443 C 52.8838 225.4761 52.5076 225.2568 52.1377 225.3565 L 48.6453 226.2927 L 46.3442 224.9644 L 48.6488 223.6362 L 52.1377 224.5697 C 52.1977 224.5858 52.2576 224.5936 52.3166 224.5936 C 52.6211 224.5936 52.9 224.3901 52.9825 224.0819 C 53.0812 223.7138 52.8629 223.3355 52.4948 223.2371 L 50.3358 222.6598 L 53.0738 221.0767 C 53.4039 220.886 53.5167 220.4643 53.3264 220.1342 C 53.1354 219.8041 52.713 219.6909 52.3839 219.8816 L 49.6458 221.4627 L 50.2231 219.3029 C 50.3218 218.9347 50.1036 218.5564 49.7354 218.4581 C 49.3645 218.3574 48.989 218.578 48.8906 218.9458 L 47.9553 222.439 L 45.6507 223.7707 L 45.6507 221.1107 L 48.2095 218.5524 C 48.479 218.2829 48.479 217.8464 48.2095 217.5769 C 47.94 217.3074 47.5035 217.3074 47.234 217.5769 L 45.6507 219.1581 L 45.6523 215.9951 C 45.6523 215.6142 45.3434 215.3053 44.9624 215.3053 C 44.5815 215.3053 44.2726 215.6142 44.2726 215.9951 L 44.2742 219.1581 L 42.6908 217.5769 C 42.4213 217.3074 41.9848 217.3074 41.7153 217.5769 C 41.4458 217.8464 41.4458 218.2829 41.7153 218.5524 L 44.2742 221.1107 L 44.2742 223.7707 L 41.9696 222.439 L 41.0342 218.9458 C 40.9355 218.578 40.5586 218.3574 40.1894 218.4581 C 39.8213 218.5564 39.603 218.9347 39.7017 219.3029 L 40.2791 221.4627 L 37.5409 219.8816 C 37.2101 219.6909 36.7894 219.8041 36.5984 220.1342 C 36.4081 220.4643 36.5209 220.886 36.851 221.0767 L 39.5925 222.6598 L 37.43 223.2371 C 37.0619 223.3355 36.8436 223.7138 36.9423 224.0819 C 37.0248 224.3901 37.3034 224.5936 37.6082 224.5936 C 37.6672 224.5936 37.7271 224.5858 37.7871 224.5697 L 41.2796 223.6327 L 43.5842 224.9644 L 41.2796 226.2927 L 37.7871 225.3565 C 37.4173 225.2572 37.0407 225.4764 36.9423 225.8443 C 36.8436 226.2124 37.0619 226.5907 37.43 226.6891 L 39.5891 227.269 L 36.851 228.8495 C 36.5209 229.0402 36.4081 229.4619 36.5984 229.792 C 36.7264 230.0133 36.9581 230.1369 37.1966 230.1369 C 37.3135 230.1369 37.4324 230.1073 37.5409 230.0446 L 40.2791 228.4662 L 39.7017 230.6233 C 39.603 230.9915 39.8213 231.3698 40.1894 231.4681 C 40.2494 231.4843 40.3093 231.492 40.3683 231.492 C 40.6731 231.492 40.9517 231.2886 41.0342 230.9803 L 41.9696 227.4898 L 44.2742 226.1581 L 44.2742 228.8181 L 41.7153 231.3738 C 41.4458 231.6432 41.4458 232.0798 41.7153 232.3493 C 41.9848 232.6187 42.4213 232.6187 42.6908 232.3493 L 44.2742 230.7673 L 44.2726 233.931 C 44.2726 234.312 44.5815 234.6209 44.9624 234.6209 Z" fill="#ffffff"/>
	</g>
	<g id="Layer%201">
	</g>
</svg>