<?xml version="1.0" encoding="utf-8"?>
<!-- Generator: Adobe Illustrator 19.2.1, SVG Export Plug-In . SVG Version: 6.00 Build 0)  -->
<svg version="1.1" id="Vrstva_1" xmlns="http://www.w3.org/2000/svg" xmlns:xlink="http://www.w3.org/1999/xlink" x="0px" y="0px"
	 width="800px" height="300px" viewBox="0 0 800 300" enable-background="new 0 0 800 300" xml:space="preserve">
<g>
	<title>Layer 1</title>
	<g id="svg_1">
		<g id="svg_9">
			
				<path id="svg_10" fill="none" stroke="#329CD5" stroke-width="3" stroke-linecap="round" stroke-linejoin="round" stroke-miterlimit="10" d="
				M243.5,242c-5.6-6.3-15.7-2.8-14.2,5.2c-3.7-0.2-7.1,1.4-7.1,5c0,3.8,2.9,5.3,5.7,5.3h46.7c7,0,11.8-10,6.5-17.3
				c-4.5-6.2-16.2-9-22.2,2"/>
			
				<path id="svg_11" fill="none" stroke="#329CD5" stroke-width="3" stroke-linecap="round" stroke-linejoin="round" stroke-miterlimit="10" d="
				M268.9,233.9c-1.7-7.7-9.4-10.4-16.1-10.2c-7.8,0.3-15.3,6.1-14.8,14.9"/>
		</g>
		
			<path id="svg_12" fill="none" stroke="#339CD4" stroke-width="3" stroke-linecap="round" stroke-linejoin="round" stroke-miterlimit="10" d="
			M274.8,265.6c-0.6,1.3-3.9,7-4.8,8.6"/>
		
			<path id="svg_13" fill="none" stroke="#339CD4" stroke-width="3" stroke-linecap="round" stroke-linejoin="round" stroke-miterlimit="10" d="
			M264.8,265.6c-0.6,1.3-5.9,10-6.8,11.6"/>
		
			<path id="svg_14" fill="none" stroke="#339CD4" stroke-width="3" stroke-linecap="round" stroke-linejoin="round" stroke-miterlimit="10" d="
			M238.8,265.6c-0.6,1.3-5.9,10-6.8,11.6"/>
		
			<path id="svg_15" fill="none" stroke="#339CD4" stroke-width="3" stroke-linecap="round" stroke-linejoin="round" stroke-miterlimit="10" d="
			M228.8,265.6c-0.6,1.3-3.9,7-4.8,8.6"/>
		
			<path id="svg_16" fill="none" stroke="#FBB920" stroke-width="3" stroke-linecap="round" stroke-linejoin="round" stroke-miterlimit="10" d="
			M251.6,265.6c-1.8,2.5-5.2,7-7,9.2c-0.8,1,6.2-0.2,5.6,0.9c-2.2,3.9-6.3,9.1-7.2,10.7"/>
	</g>
	<g id="svg_17">
		<g id="svg_19">
			
				<path id="svg_20" fill="none" stroke="#329CD5" stroke-width="3" stroke-linecap="round" stroke-linejoin="round" stroke-miterlimit="10" d="
				M142.5,241.2c-5.6-6.3-15.7-2.8-14.2,5.2c-3.7-0.2-7.1,1.4-7.1,5c0,3.8,2.9,5.3,5.7,5.3h46.7c7,0,11.8-10,6.5-17.3
				c-4.5-6.2-16.2-9-22.2,2"/>
			
				<path id="svg_21" fill="none" stroke="#329CD5" stroke-width="3" stroke-linecap="round" stroke-linejoin="round" stroke-miterlimit="10" d="
				M167.8,233.1c-1.7-7.7-9.4-10.4-16.1-10.2c-7.8,0.3-15.3,6.1-14.8,14.9"/>
		</g>
		
			<path id="svg_264" fill="none" stroke="#339CD4" stroke-width="3" stroke-linecap="round" stroke-linejoin="round" stroke-miterlimit="10" d="
			M164.7,265.8c-2.1,4.4-5.3,11.2-6.1,13.5"/>
		
			<path id="svg_265" fill="none" stroke="#339CD4" stroke-width="3" stroke-linecap="round" stroke-linejoin="round" stroke-miterlimit="10" d="
			M154.5,265.3c-2.2,5.2-6.6,15.3-7.6,17.8"/>
		
			<path id="svg_266" fill="none" stroke="#339CD4" stroke-width="3" stroke-linecap="round" stroke-linejoin="round" stroke-miterlimit="10" d="
			M145.2,264.8c-1.6,3.1-7.3,15.1-8.6,17.8"/>
		
			<path id="svg_267" fill="none" stroke="#339CD4" stroke-width="3" stroke-linecap="round" stroke-linejoin="round" stroke-miterlimit="10" d="
			M135.2,264.8c-2.1,4.5-3.5,7.5-5.8,11.6"/>
	</g>
	<g id="svg_27">
		
			<path id="svg_28" fill="none" stroke="#339CD4" stroke-width="3" stroke-linecap="round" stroke-linejoin="round" stroke-miterlimit="10" d="
			M48.9,278.2c-0.2,0.5-0.7,1.7-1.3,2.7"/>
		
			<path id="svg_29" fill="none" stroke="#339CD4" stroke-width="3" stroke-linecap="round" stroke-linejoin="round" stroke-miterlimit="10" d="
			M52.4,270.7c-0.4,0.9-0.7,1.3-1,2"/>
		
			<path id="svg_30" fill="none" stroke="#339CD4" stroke-width="3" stroke-linecap="round" stroke-linejoin="round" stroke-miterlimit="10" d="
			M55.8,263.1c-0.4,1-0.5,1.2-1,2.3"/>
		
			<path id="svg_31" fill="none" stroke="#339CD4" stroke-width="3" stroke-linecap="round" stroke-linejoin="round" stroke-miterlimit="10" d="
			M64.4,270.7c-0.4,0.9-0.7,1.3-1,2"/>
		
			<path id="svg_32" fill="none" stroke="#339CD4" stroke-width="3" stroke-linecap="round" stroke-linejoin="round" stroke-miterlimit="10" d="
			M67.8,263.1c-0.4,1-0.5,1.2-1,2.3"/>
		
			<path id="svg_33" fill="none" stroke="#339CD4" stroke-width="3" stroke-linecap="round" stroke-linejoin="round" stroke-miterlimit="10" d="
			M35.9,278.2c-0.2,0.5-0.7,1.7-1.3,2.7"/>
		
			<path id="svg_34" fill="none" stroke="#339CD4" stroke-width="3" stroke-linecap="round" stroke-linejoin="round" stroke-miterlimit="10" d="
			M39.4,270.7c-0.4,0.9-0.7,1.3-1,2"/>
		
			<path id="svg_35" fill="none" stroke="#339CD4" stroke-width="3" stroke-linecap="round" stroke-linejoin="round" stroke-miterlimit="10" d="
			M42.8,263.1c-0.4,1-0.5,1.2-1,2.3"/>
		
			<path id="svg_36" fill="none" stroke="#339CD4" stroke-width="3" stroke-linecap="round" stroke-linejoin="round" stroke-miterlimit="10" d="
			M27.4,270.7c-0.4,0.9-0.7,1.3-1,2"/>
		
			<path id="svg_37" fill="none" stroke="#339CD4" stroke-width="3" stroke-linecap="round" stroke-linejoin="round" stroke-miterlimit="10" d="
			M30.8,263.1c-0.4,1-0.5,1.2-1,2.3"/>
		<g id="svg_38">
			
				<path id="svg_39" fill="none" stroke="#329CD5" stroke-width="3" stroke-linecap="round" stroke-linejoin="round" stroke-miterlimit="10" d="
				M40.7,237.4c-5.6-6.3-15.7-2.8-14.2,5.2c-3.7-0.2-7.1,1.4-7.1,5c0,3.8,2.9,5.3,5.7,5.3h46.7c7,0,11.8-10,6.5-17.3
				c-4.5-6.2-16.2-9-22.2,2"/>
			
				<path id="svg_40" fill="none" stroke="#329CD5" stroke-width="3" stroke-linecap="round" stroke-linejoin="round" stroke-miterlimit="10" d="
				M66.1,229.3c-1.7-7.7-9.4-10.4-16.1-10.2c-7.8,0.3-15.3,6.1-14.8,14.9"/>
		</g>
	</g>
	<g id="svg_41">
		
			<path id="svg_42" fill="none" stroke="#9BB3D0" stroke-width="3" stroke-linecap="round" stroke-linejoin="round" stroke-miterlimit="10" d="
			M662,176.6c0,1.6-0.1,2-0.1,2.7"/>
		
			<path id="svg_43" fill="none" stroke="#9BB3D0" stroke-width="3" stroke-linecap="round" stroke-linejoin="round" stroke-miterlimit="10" d="
			M662.2,165c0,0.5,0,1.9-0.1,2.7"/>
		
			<path id="svg_44" fill="none" stroke="#9BB3D0" stroke-width="3" stroke-linecap="round" stroke-linejoin="round" stroke-miterlimit="10" d="
			M666.1,174.6c1.8,1,2,1,2.8,1.5"/>
		
			<path id="svg_45" fill="none" stroke="#9BB3D0" stroke-width="3" stroke-linecap="round" stroke-linejoin="round" stroke-miterlimit="10" d="
			M655.2,168.4c0.7,0.5,1.1,0.5,2.9,1.5"/>
		
			<path id="svg_46" fill="none" stroke="#9BB3D0" stroke-width="3" stroke-linecap="round" stroke-linejoin="round" stroke-miterlimit="10" d="
			M666.2,169.8c0.4-0.2,2.3-1.3,2.8-1.6"/>
		
			<path id="svg_47" fill="none" stroke="#9BB3D0" stroke-width="3" stroke-linecap="round" stroke-linejoin="round" stroke-miterlimit="10" d="
			M655.4,175.9c1-0.6,1.6-0.9,2.5-1.5"/>
		
			<path id="svg_48" fill="none" stroke="#9BB3D0" stroke-width="3" stroke-linecap="round" stroke-linejoin="round" stroke-miterlimit="10" d="
			M638,182.6c0,1.6,0,2-0.1,2.7"/>
		
			<path id="svg_49" fill="none" stroke="#9BB3D0" stroke-width="3" stroke-linecap="round" stroke-linejoin="round" stroke-miterlimit="10" d="
			M638.2,171c0,0.5,0,1.9,0,2.7"/>
		
			<path id="svg_50" fill="none" stroke="#9BB3D0" stroke-width="3" stroke-linecap="round" stroke-linejoin="round" stroke-miterlimit="10" d="
			M642.1,180.6c1.8,1,2,1,2.8,1.5"/>
		
			<path id="svg_51" fill="none" stroke="#9BB3D0" stroke-width="3" stroke-linecap="round" stroke-linejoin="round" stroke-miterlimit="10" d="
			M631.2,174.4c0.7,0.5,1,0.5,2.9,1.5"/>
		
			<path id="svg_52" fill="none" stroke="#9BB3D0" stroke-width="3" stroke-linecap="round" stroke-linejoin="round" stroke-miterlimit="10" d="
			M642.2,175.8c0.4-0.2,2.3-1.3,2.8-1.6"/>
		
			<path id="svg_53" fill="none" stroke="#9BB3D0" stroke-width="3" stroke-linecap="round" stroke-linejoin="round" stroke-miterlimit="10" d="
			M631.4,181.9c1-0.6,1.6-0.9,2.5-1.5"/>
		<g id="svg_54">
			
				<path id="svg_55" fill="none" stroke="#FBB920" stroke-width="3" stroke-linecap="round" stroke-linejoin="round" stroke-miterlimit="10" d="
				M644.2,125.2c-3.5-4.8-10.9-6.8-17-2.5c-3.8,2.6-5.3,7.6-3.8,12.4c1.1,3.5,3.9,5.8,7.2,6.9"/>
			
				<path id="svg_56" fill="none" stroke="#FBB920" stroke-width="3" stroke-linecap="round" stroke-linejoin="round" stroke-miterlimit="10" d="
				M634.3,118.4c0.2-1.8,0-2.1,0-3.7"/>
			
				<path id="svg_57" fill="none" stroke="#FBB920" stroke-width="3" stroke-linecap="round" stroke-linejoin="round" stroke-miterlimit="10" d="
				M620.8,131.7c-0.9,0.1-3.2,0.1-4.1,0.1"/>
			
				<path id="svg_58" fill="none" stroke="#FBB920" stroke-width="3" stroke-linecap="round" stroke-linejoin="round" stroke-miterlimit="10" d="
				M644.1,122.9c0.9-0.6,2.2-1.6,3.3-2.8"/>
			
				<path id="svg_59" fill="none" stroke="#FBB920" stroke-width="3" stroke-linecap="round" stroke-linejoin="round" stroke-miterlimit="10" d="
				M625.2,123.2c-1.1-0.8-3.4-2.7-3.9-3.1"/>
			
				<path id="svg_60" fill="none" stroke="#FBB920" stroke-width="3" stroke-linecap="round" stroke-linejoin="round" stroke-miterlimit="10" d="
				M624.8,140.4c-0.7,0.7-2,1.9-3.3,2.9"/>
		</g>
		<g id="svg_61">
			
				<path id="svg_62" fill="none" stroke="#329CD5" stroke-width="3" stroke-linecap="round" stroke-linejoin="round" stroke-miterlimit="10" d="
				M643.5,143.1c-5.6-6.3-15.7-2.8-14.2,5.2c-3.7-0.2-7.1,1.4-7.1,5c0,3.8,2.9,5.3,5.7,5.3h46.7c7,0,11.8-10,6.5-17.3
				c-4.5-6.2-16.2-9-22.2,2"/>
			
				<path id="svg_63" fill="none" stroke="#329CD5" stroke-width="3" stroke-linecap="round" stroke-linejoin="round" stroke-miterlimit="10" d="
				M668.9,135c-1.7-7.7-9.4-10.4-16.1-10.2c-7.8,0.3-15.3,6.1-14.8,14.9"/>
		</g>
	</g>
	<g id="svg_64">
		
			<path id="svg_65" fill="none" stroke="#9BB3D0" stroke-width="3" stroke-linecap="round" stroke-linejoin="round" stroke-miterlimit="10" d="
			M760.9,175.8c0,1.6-0.1,2-0.1,2.7"/>
		
			<path id="svg_66" fill="none" stroke="#9BB3D0" stroke-width="3" stroke-linecap="round" stroke-linejoin="round" stroke-miterlimit="10" d="
			M761.1,164.2c0,0.5,0,1.9-0.1,2.7"/>
		
			<path id="svg_67" fill="none" stroke="#9BB3D0" stroke-width="3" stroke-linecap="round" stroke-linejoin="round" stroke-miterlimit="10" d="
			M765,173.8c1.8,1,2,1,2.8,1.5"/>
		
			<path id="svg_68" fill="none" stroke="#9BB3D0" stroke-width="3" stroke-linecap="round" stroke-linejoin="round" stroke-miterlimit="10" d="
			M754.1,167.6c0.7,0.5,1.1,0.5,2.9,1.5"/>
		
			<path id="svg_69" fill="none" stroke="#9BB3D0" stroke-width="3" stroke-linecap="round" stroke-linejoin="round" stroke-miterlimit="10" d="
			M765.1,169.1c0.4-0.2,2.3-1.3,2.8-1.6"/>
		
			<path id="svg_70" fill="none" stroke="#9BB3D0" stroke-width="3" stroke-linecap="round" stroke-linejoin="round" stroke-miterlimit="10" d="
			M754.3,175.1c1-0.6,1.6-0.9,2.5-1.5"/>
		
			<path id="svg_71" fill="none" stroke="#9BB3D0" stroke-width="3" stroke-linecap="round" stroke-linejoin="round" stroke-miterlimit="10" d="
			M736.9,181.8c0,1.6,0,2-0.1,2.7"/>
		
			<path id="svg_72" fill="none" stroke="#9BB3D0" stroke-width="3" stroke-linecap="round" stroke-linejoin="round" stroke-miterlimit="10" d="
			M737.1,170.2c0,0.5,0,1.9,0,2.7"/>
		
			<path id="svg_73" fill="none" stroke="#9BB3D0" stroke-width="3" stroke-linecap="round" stroke-linejoin="round" stroke-miterlimit="10" d="
			M741,179.8c1.8,1,2,1,2.8,1.5"/>
		
			<path id="svg_74" fill="none" stroke="#9BB3D0" stroke-width="3" stroke-linecap="round" stroke-linejoin="round" stroke-miterlimit="10" d="
			M730.1,173.6c0.7,0.5,1,0.5,2.9,1.5"/>
		
			<path id="svg_75" fill="none" stroke="#9BB3D0" stroke-width="3" stroke-linecap="round" stroke-linejoin="round" stroke-miterlimit="10" d="
			M741.1,175.1c0.4-0.2,2.3-1.3,2.8-1.6"/>
		
			<path id="svg_76" fill="none" stroke="#9BB3D0" stroke-width="3" stroke-linecap="round" stroke-linejoin="round" stroke-miterlimit="10" d="
			M730.3,181.1c1-0.6,1.6-0.9,2.5-1.5"/>
		
			<path id="svg_77" fill="none" stroke="#C6C6C5" stroke-width="3" stroke-linecap="round" stroke-linejoin="round" stroke-miterlimit="10" d="
			M745,125c-1.3-5.9-6.1-10.8-14.9-9.2c4.3,4.7,4.4,9.9,1.6,13.1c-3.2,3.6-8.9,4.9-14,1.9c0.3,4,3.2,10.3,10.5,12"/>
		<g id="svg_78">
			
				<path id="svg_79" fill="none" stroke="#329CD5" stroke-width="3" stroke-linecap="round" stroke-linejoin="round" stroke-miterlimit="10" d="
				M742.5,142.3c-5.6-6.3-15.7-2.8-14.2,5.2c-3.7-0.2-7.1,1.4-7.1,5c0,3.8,2.9,5.3,5.7,5.3h46.7c7,0,11.8-10,6.5-17.3
				c-4.5-6.2-16.2-9-22.2,2"/>
			
				<path id="svg_80" fill="none" stroke="#329CD5" stroke-width="3" stroke-linecap="round" stroke-linejoin="round" stroke-miterlimit="10" d="
				M767.8,134.2c-1.7-7.7-9.4-10.4-16.1-10.2c-7.8,0.3-15.3,6.1-14.8,14.9"/>
		</g>
	</g>
	<g id="svg_81">
		
			<path id="svg_82" fill="none" stroke="#9BB3D0" stroke-width="3" stroke-linecap="round" stroke-linejoin="round" stroke-miterlimit="10" d="
			M561.2,271.6c0,1.6-0.1,2-0.1,2.7"/>
		
			<path id="svg_83" fill="none" stroke="#9BB3D0" stroke-width="3" stroke-linecap="round" stroke-linejoin="round" stroke-miterlimit="10" d="
			M561.4,259.9c0,0.5,0,1.9-0.1,2.7"/>
		
			<path id="svg_84" fill="none" stroke="#9BB3D0" stroke-width="3" stroke-linecap="round" stroke-linejoin="round" stroke-miterlimit="10" d="
			M565.3,269.6c1.8,1,2,1,2.8,1.5"/>
		
			<path id="svg_85" fill="none" stroke="#9BB3D0" stroke-width="3" stroke-linecap="round" stroke-linejoin="round" stroke-miterlimit="10" d="
			M554.4,263.3c0.7,0.5,1.1,0.5,2.9,1.5"/>
		
			<path id="svg_86" fill="none" stroke="#9BB3D0" stroke-width="3" stroke-linecap="round" stroke-linejoin="round" stroke-miterlimit="10" d="
			M565.4,264.8c0.4-0.2,2.3-1.3,2.8-1.6"/>
		
			<path id="svg_87" fill="none" stroke="#9BB3D0" stroke-width="3" stroke-linecap="round" stroke-linejoin="round" stroke-miterlimit="10" d="
			M554.6,270.8c1-0.6,1.6-0.9,2.5-1.5"/>
		
			<path id="svg_88" fill="none" stroke="#9BB3D0" stroke-width="3" stroke-linecap="round" stroke-linejoin="round" stroke-miterlimit="10" d="
			M537.2,277.6c0,1.6-0.1,2-0.1,2.7"/>
		
			<path id="svg_89" fill="none" stroke="#9BB3D0" stroke-width="3" stroke-linecap="round" stroke-linejoin="round" stroke-miterlimit="10" d="
			M537.4,265.9c0,0.5,0,1.9-0.1,2.7"/>
		
			<path id="svg_90" fill="none" stroke="#9BB3D0" stroke-width="3" stroke-linecap="round" stroke-linejoin="round" stroke-miterlimit="10" d="
			M541.3,275.6c1.8,1,2,1,2.8,1.5"/>
		
			<path id="svg_91" fill="none" stroke="#9BB3D0" stroke-width="3" stroke-linecap="round" stroke-linejoin="round" stroke-miterlimit="10" d="
			M530.4,269.3c0.7,0.5,1,0.5,2.9,1.5"/>
		
			<path id="svg_92" fill="none" stroke="#9BB3D0" stroke-width="3" stroke-linecap="round" stroke-linejoin="round" stroke-miterlimit="10" d="
			M541.4,270.8c0.4-0.2,2.3-1.3,2.8-1.6"/>
		
			<path id="svg_93" fill="none" stroke="#9BB3D0" stroke-width="3" stroke-linecap="round" stroke-linejoin="round" stroke-miterlimit="10" d="
			M530.6,276.8c1-0.6,1.6-0.9,2.5-1.5"/>
		<g id="svg_94">
			
				<path id="svg_95" fill="none" stroke="#329CD5" stroke-width="3" stroke-linecap="round" stroke-linejoin="round" stroke-miterlimit="10" d="
				M540.8,238.1c-5.6-6.3-15.7-2.8-14.2,5.2c-3.7-0.2-7.2,1.4-7.2,5c0,3.8,2.9,5.3,5.7,5.3h46.7c7,0,11.8-10,6.5-17.3
				c-4.5-6.2-16.2-9-22.2,2"/>
			
				<path id="svg_96" fill="none" stroke="#329CD5" stroke-width="3" stroke-linecap="round" stroke-linejoin="round" stroke-miterlimit="10" d="
				M566.1,230c-1.7-7.7-9.4-10.4-16.1-10.2c-7.8,0.3-15.3,6.1-14.8,14.9"/>
		</g>
	</g>
	<g id="svg_97">
		<g id="svg_98">
			
				<path id="svg_99" fill="none" stroke="#FBBA22" stroke-width="3" stroke-linecap="round" stroke-linejoin="round" stroke-miterlimit="10" d="
				M232.9,32.4c-4.9,3.4-6.8,9.8-4.9,16c3.2,10.6,18.9,12.9,25.4,5c4.7-5.8,4.9-13,1.4-17.7C250.2,29.6,240.7,27,232.9,32.4z"/>
			
				<path id="svg_100" fill="none" stroke="#FBBA22" stroke-width="3" stroke-linecap="round" stroke-linejoin="round" stroke-miterlimit="10" d="
				M259,43.9c2.3,0.2,4,0,6,0"/>
			
				<path id="svg_101" fill="none" stroke="#FBBA22" stroke-width="3" stroke-linecap="round" stroke-linejoin="round" stroke-miterlimit="10" d="
				M242.1,22.2c-0.2,2.3,0,4,0,6"/>
			
				<path id="svg_102" fill="none" stroke="#FBBA22" stroke-width="3" stroke-linecap="round" stroke-linejoin="round" stroke-miterlimit="10" d="
				M224.6,44.1c-1.2,0.1-4.1,0.1-5.3,0.1"/>
			
				<path id="svg_103" fill="none" stroke="#FBBA22" stroke-width="3" stroke-linecap="round" stroke-linejoin="round" stroke-miterlimit="10" d="
				M254.6,32.7c1.1-0.8,2.8-2.8,4.3-4.4"/>
			
				<path id="svg_104" fill="none" stroke="#FBBA22" stroke-width="3" stroke-linecap="round" stroke-linejoin="round" stroke-miterlimit="10" d="
				M230.3,33.1c-1.4-1.1-4.3-3.7-5-4.3"/>
			
				<path id="svg_105" fill="none" stroke="#FBBA22" stroke-width="3" stroke-linecap="round" stroke-linejoin="round" stroke-miterlimit="10" d="
				M229.7,55.3c-0.8,0.9-2.6,2.5-4.3,3.7"/>
		</g>
		
			<path id="svg_106" fill="none" stroke="#329CD5" stroke-width="3" stroke-linecap="round" stroke-linejoin="round" stroke-miterlimit="10" d="
			M271.5,77.8c13.1,0,12.3-19.2-2.7-12c5.6-5.6,1.1-11.8-5.8-12.1c-6.5-0.3-14.3,1.2-12.9,8c-7.7-3.9-11.9,0.8-12.4,5.9
			c-0.1,1.2-4.8-2.6-8,3.3c-2.3,4.1,2.7,6.9,6,6.9H271.5L271.5,77.8z"/>
	</g>
	<g id="svg_107">
		
			<path id="svg_108" fill="none" stroke="#C6C6C5" stroke-width="3" stroke-linecap="round" stroke-linejoin="round" stroke-miterlimit="10" d="
			M348.6,56.9c2-1.7,3.8-3.9,5-6.4c5.4-10.8,0-29.1-18.6-25.7c5.8,6.3,6,13.3,2.2,17.7c-4.3,4.9-11.9,6.6-18.8,2.7
			c0.4,5.4,4.3,13.9,14.2,16.1c1.8,0.4,3.8,0.5,5.7,0.2"/>
		
			<path id="svg_109" fill="none" stroke="#329CD5" stroke-width="3" stroke-linecap="round" stroke-linejoin="round" stroke-miterlimit="10" d="
			M372.4,75.4c13.1-0.1,12.2-18.9-2.8-11.7c5.6-5.6,1.1-11.6-5.9-11.9c-6.5-0.3-14.3,1.3-12.8,8.1c-7.7-3.9-11.9,0.9-12.4,6
			c-0.1,1.2-4.8-2.9-8,3.1c-2.2,4.1,2.8,6.6,6.1,6.6L372.4,75.4z"/>
	</g>
	<g id="svg_110">
		
			<path id="svg_111" fill="none" stroke="#FEBA18" stroke-width="3" stroke-linecap="round" stroke-linejoin="round" stroke-miterlimit="10" d="
			M356.2,250.6c-4.6,3.5-10.3,8.3-14.7,11.4c-2,1.4,15.6-0.2,14.1,1.3c-5.5,5.6-13.3,13-15.6,15.3"/>
		<g id="svg_112">
			
				<path id="svg_113" fill="none" stroke="#319CD5" stroke-width="3" stroke-linecap="round" stroke-linejoin="round" stroke-miterlimit="10" d="
				M368.1,257.4c8.9,0,14.6-7,10.6-17.4c-3.1-8-13.2-10.7-20-2.5"/>
			
				<path id="svg_114" fill="none" stroke="#319CD5" stroke-width="3" stroke-linecap="round" stroke-linejoin="round" stroke-miterlimit="10" d="
				M338.6,241.7c-5.4-7.3-14.5-3.1-17.1,1.6c-2.8,5.1-2.1,14,8.4,14"/>
			
				<path id="svg_115" fill="none" stroke="#319CD5" stroke-width="3" stroke-linecap="round" stroke-linejoin="round" stroke-miterlimit="10" d="
				M365,231.9c-5.6-18.8-34.4-9.4-30.2,5.7"/>
		</g>
	</g>
	<g id="svg_116">
		
			<path id="svg_117" fill="none" stroke="#9AB3D0" stroke-width="3" stroke-linecap="round" stroke-linejoin="round" stroke-miterlimit="10" d="
			M737,274.4c0.2,0.1,0.3,0.3,0.5,0.4c4.5,3.5,9-1.1,5.1-5.5C738.4,264.5,732.5,270.1,737,274.4z"/>
		
			<path id="svg_118" fill="none" stroke="#9AB3D0" stroke-width="3" stroke-linecap="round" stroke-linejoin="round" stroke-miterlimit="10" d="
			M749.8,259.4l0.4,0c4.7-0.5,4.4-7.3-0.3-6.9C744.9,252.8,744.3,259.5,749.8,259.4z"/>
		
			<path id="svg_119" fill="none" stroke="#9AB3D0" stroke-width="3" stroke-linecap="round" stroke-linejoin="round" stroke-miterlimit="10" d="
			M753.3,268.7c-1.6,3.5,3.4,5.1,5.4,2.5c2.2-2.9-1.8-5.5-3.9-4.5L753.3,268.7z"/>
		<g id="svg_120">
			
				<path id="svg_121" fill="none" stroke="#319CD5" stroke-width="3" stroke-linecap="round" stroke-linejoin="round" stroke-miterlimit="10" d="
				M768.1,259.9c8.9,0,14.6-7,10.5-17.4c-3.1-8-13.2-10.7-20-2.5"/>
			
				<path id="svg_122" fill="none" stroke="#319CD5" stroke-width="3" stroke-linecap="round" stroke-linejoin="round" stroke-miterlimit="10" d="
				M738.6,244.2c-5.4-7.3-14.5-3.1-17.1,1.6c-2.8,5.1-2.1,14,8.4,14"/>
			
				<path id="svg_123" fill="none" stroke="#319CD5" stroke-width="3" stroke-linecap="round" stroke-linejoin="round" stroke-miterlimit="10" d="
				M765,234.4c-5.6-18.8-34.4-9.4-30.2,5.7"/>
		</g>
	</g>
	<g id="svg_124">
		
			<line id="svg_125" fill="none" stroke="#9AB3D0" stroke-width="3" stroke-linecap="round" stroke-linejoin="round" stroke-miterlimit="10" x1="432" y1="259" x2="465.7" y2="259"/>
		
			<line id="svg_126" fill="none" stroke="#9AB3D0" stroke-width="3" stroke-linecap="round" stroke-linejoin="round" stroke-miterlimit="10" x1="432" y1="268" x2="465.7" y2="268"/>
		
			<line id="svg_127" fill="none" stroke="#9AB3D0" stroke-width="3" stroke-linecap="round" stroke-linejoin="round" stroke-miterlimit="10" x1="432" y1="277" x2="465.7" y2="277"/>
		<g id="svg_128">
			
				<path id="svg_129" fill="none" stroke="#319CD5" stroke-width="3" stroke-linecap="round" stroke-linejoin="round" stroke-miterlimit="10" d="
				M472.1,258.4c6.5-1.8,10-8.2,6.5-16.9c-3.1-8-13.2-10.7-20-2.5"/>
			
				<path id="svg_130" fill="none" stroke="#319CD5" stroke-width="3" stroke-linecap="round" stroke-linejoin="round" stroke-miterlimit="10" d="
				M438.5,243.3c-5.4-7.3-14.5-3.1-17.1,1.6c-2.3,4.2-2.2,11.1,3.9,13.3"/>
			
				<path id="svg_131" fill="none" stroke="#319CD5" stroke-width="3" stroke-linecap="round" stroke-linejoin="round" stroke-miterlimit="10" d="
				M465,233.5c-5.6-18.8-34.4-9.4-30.2,5.7"/>
		</g>
	</g>
	<g id="svg_132">
		
			<path id="svg_133" fill="none" stroke="#FBB920" stroke-width="3" stroke-linecap="round" stroke-linejoin="round" stroke-miterlimit="10" d="
			M38.6,34c-6.9,4.8-11.5,13.3-8.9,22c4.6,14.8,26.2,16.6,35.3,5.7C80.5,43.1,57,21,38.6,34z"/>
		
			<path id="svg_134" fill="none" stroke="#FBB920" stroke-width="3" stroke-linecap="round" stroke-linejoin="round" stroke-miterlimit="10" d="
			M49.4,28.1c0.5-3.5,0.3-8,0.5-11.4"/>
		
			<path id="svg_135" fill="none" stroke="#FBB920" stroke-width="3" stroke-linecap="round" stroke-linejoin="round" stroke-miterlimit="10" d="
			M49.9,71.1c0,5.1,0.1,7.3,0.5,12.3"/>
		
			<path id="svg_136" fill="none" stroke="#FBB920" stroke-width="3" stroke-linecap="round" stroke-linejoin="round" stroke-miterlimit="10" d="
			M73.6,49.6c4.8,0,8.3,0,12.5,0.1"/>
		
			<path id="svg_137" fill="none" stroke="#FBB920" stroke-width="3" stroke-linecap="round" stroke-linejoin="round" stroke-miterlimit="10" d="
			M25.9,49.8c-4.6,0-7.3,0-12,0.3"/>
		
			<path id="svg_138" fill="none" stroke="#FBB920" stroke-width="3" stroke-linecap="round" stroke-linejoin="round" stroke-miterlimit="10" d="
			M66.1,33.1c3-2.3,5.7-4.5,8.4-7.2"/>
		
			<path id="svg_139" fill="none" stroke="#FBB920" stroke-width="3" stroke-linecap="round" stroke-linejoin="round" stroke-miterlimit="10" d="
			M33.4,33.6c-1.9-1.6-6.8-6.5-7.9-7.5"/>
		
			<path id="svg_140" fill="none" stroke="#FBB920" stroke-width="3" stroke-linecap="round" stroke-linejoin="round" stroke-miterlimit="10" d="
			M32.8,66.3c-1.7,1.9-5,4.7-8.1,6.9"/>
		
			<path id="svg_141" fill="none" stroke="#FBB920" stroke-width="3" stroke-linecap="round" stroke-linejoin="round" stroke-miterlimit="10" d="
			M68.1,64.6c2.5,2,5.3,3.8,8.7,6.8"/>
		
			<path id="svg_142" fill="none" stroke="#FBB920" stroke-width="3" stroke-linecap="round" stroke-linejoin="round" stroke-miterlimit="10" d="
			M38.6,50.1c-1-4.5,6-10.5,10.5-9.5"/>
	</g>
	<g id="svg_143">
		
			<path id="svg_144" fill="none" stroke="#C6C6C5" stroke-width="3" stroke-linecap="round" stroke-linejoin="round" stroke-miterlimit="10" d="
			M132.8,68c11.3,11.5,39.6,8.5,41.6-14.8c-9,2.8-16.3-0.2-21.1-6c-5.6-6.7-4.9-14.8,1.6-21.3c-3.9-0.4-16.6-2.5-25.6,11.4
			C123.5,46.3,124.4,59.5,132.8,68z"/>
		
			<path id="svg_145" fill="none" stroke="#C6C6C5" stroke-width="3" stroke-linecap="round" stroke-linejoin="round" stroke-miterlimit="10" d="
			M138.5,61.4c3.1,3.4,7.2,4.7,11.9,4.4"/>
		
			<path id="svg_146" fill="none" stroke="#C6C6C5" stroke-width="3" stroke-linecap="round" stroke-linejoin="round" stroke-miterlimit="10" d="
			M134,49.2c-0.3,2.2-0.3,3.9,0.5,5.6"/>
	</g>
	<g id="svg_147">
		
			<path id="svg_148" fill="none" stroke="#339CD4" stroke-width="3" stroke-linecap="round" stroke-linejoin="round" stroke-miterlimit="10" d="
			M39,151.5c-6.3-6.9-19.6-3.5-16.8,6.8c-2.1-2.3-7.3,0.5-7.3,4.5c0,4.2,3.3,5.9,6.4,5.9h53.9c7.9,0,13.3-11.2,7.4-19.3
			c-5.1-6.9-18.3-10-25,2.1"/>
		
			<path id="svg_149" fill="none" stroke="#339CD4" stroke-width="3" stroke-linecap="round" stroke-linejoin="round" stroke-miterlimit="10" d="
			M68.7,142.5c-1.9-8.5-10.7-11.5-18.2-11.3c-8.8,0.3-17.3,6.8-16.8,16.5"/>
	</g>
	<g id="svg_150">
		<g id="svg_151">
			
				<path id="svg_152" fill="none" stroke="#FBB920" stroke-width="3" stroke-linecap="round" stroke-linejoin="round" stroke-miterlimit="10" d="
				M446.7,41.5c-0.3-1.7-0.9-3.4-1.9-4.7c-3.9-5.4-12.3-7.6-19.1-2.9c-4.3,3-6,8.6-4.3,14c1.5,4.9,6,7.8,10.8,8.4"/>
			
				<path id="svg_153" fill="none" stroke="#FBB920" stroke-width="3" stroke-linecap="round" stroke-linejoin="round" stroke-miterlimit="10" d="
				M433.7,29c0.2-2,0-2.4,0-4.1"/>
			
				<path id="svg_154" fill="none" stroke="#FBB920" stroke-width="3" stroke-linecap="round" stroke-linejoin="round" stroke-miterlimit="10" d="
				M418.4,44.1c-1.1,0.1-3.6,0.1-4.7,0.1"/>
			
				<path id="svg_155" fill="none" stroke="#FBB920" stroke-width="3" stroke-linecap="round" stroke-linejoin="round" stroke-miterlimit="10" d="
				M444.7,34.1c1-0.7,2.5-1.8,3.8-3.2"/>
			
				<path id="svg_156" fill="none" stroke="#FBB920" stroke-width="3" stroke-linecap="round" stroke-linejoin="round" stroke-miterlimit="10" d="
				M423.4,34.4c-1.2-0.9-3.8-3-4.4-3.5"/>
			
				<path id="svg_157" fill="none" stroke="#FBB920" stroke-width="3" stroke-linecap="round" stroke-linejoin="round" stroke-miterlimit="10" d="
				M422.9,53.9c-0.7,0.8-2.3,2.2-3.8,3.3"/>
		</g>
		<g id="svg_158">
			
				<path id="svg_159" fill="none" stroke="#339CD4" stroke-width="3" stroke-linecap="round" stroke-linejoin="round" stroke-miterlimit="10" d="
				M444.8,59.2c-5.7-6.4-17.6-3.2-15.1,6.3c-1.9-2.1-6.6,0.5-6.6,4.1c0,3.8,2.9,5.5,5.8,5.5h48.4c7.1,0,12-10.3,6.6-17.7
				c-4.6-6.3-16.4-9.2-22.5,2"/>
			
				<path id="svg_160" fill="none" stroke="#339CD4" stroke-width="3" stroke-linecap="round" stroke-linejoin="round" stroke-miterlimit="10" d="
				M471.5,51c-1.7-7.8-9.6-10.6-16.3-10.4c-7.9,0.3-15.5,6.2-15.1,15.2"/>
		</g>
	</g>
	<g id="svg_161">
		<g id="svg_162">
			
				<path id="svg_163" fill="none" stroke="#FBB920" stroke-width="3" stroke-linecap="round" stroke-linejoin="round" stroke-miterlimit="10" d="
				M643.3,38.8c-4.3-2.7-10.4-3.1-15.5,0.5c-4.3,3-6,8.6-4.3,14c0.7,2.3,2.1,4.2,3.8,5.6"/>
			
				<path id="svg_164" fill="none" stroke="#FBB920" stroke-width="3" stroke-linecap="round" stroke-linejoin="round" stroke-miterlimit="10" d="
				M635.8,34.4c0.2-2,0-2.4,0-4.1"/>
			
				<path id="svg_165" fill="none" stroke="#FBB920" stroke-width="3" stroke-linecap="round" stroke-linejoin="round" stroke-miterlimit="10" d="
				M620.6,49.5c-1.1,0.1-3.6,0.1-4.7,0.1"/>
			
				<path id="svg_166" fill="none" stroke="#FBB920" stroke-width="3" stroke-linecap="round" stroke-linejoin="round" stroke-miterlimit="10" d="
				M625.6,39.8c-1.2-0.9-3.8-3-4.4-3.5"/>
		</g>
		<g id="svg_167">
			
				<path id="svg_168" fill="none" stroke="#339CD4" stroke-width="3" stroke-linecap="round" stroke-linejoin="round" stroke-miterlimit="10" d="
				M642.7,53.8c-5.7-6.4-17.6-3.2-15.1,6.3c-1.9-2.1-6.6,0.5-6.6,4.1c0,3.8,2.9,5.5,5.8,5.5h48.4c7.1,0,12-10.3,6.6-17.7
				c-4.6-6.3-16.4-9.2-22.5,2"/>
			
				<path id="svg_169" fill="none" stroke="#339CD4" stroke-width="3" stroke-linecap="round" stroke-linejoin="round" stroke-miterlimit="10" d="
				M669.4,45.6c-1.7-7.8-9.6-10.6-16.3-10.4c-7.9,0.3-15.5,6.2-15.1,15.2"/>
		</g>
	</g>
	<g id="svg_170">
		
			<path id="svg_171" fill="none" stroke="#C6C6C5" stroke-width="3" stroke-linecap="round" stroke-linejoin="round" stroke-miterlimit="10" d="
			M743.9,37.9c-2.5-4.7-7.6-7.8-15.5-6.4c4.9,5.3,5.1,11.3,1.9,15c-3.6,4.2-10.1,5.6-15.9,2.3c0.3,3.8,2.7,9.5,8.3,12.3"/>
		<g id="svg_172">
			
				<path id="svg_173" fill="none" stroke="#339CD4" stroke-width="3" stroke-linecap="round" stroke-linejoin="round" stroke-miterlimit="10" d="
				M744.3,52.9c-5.7-6.4-17.6-3.2-15.1,6.3c-1.9-2.1-6.6,0.5-6.6,4.2c0,3.8,2.9,5.5,5.8,5.5h48.4c7.1,0,12-10.3,6.6-17.7
				c-4.6-6.3-16.4-9.2-22.5,2"/>
			
				<path id="svg_174" fill="none" stroke="#339CD4" stroke-width="3" stroke-linecap="round" stroke-linejoin="round" stroke-miterlimit="10" d="
				M771,44.7c-1.7-7.8-9.6-10.6-16.3-10.4c-7.9,0.3-15.5,6.2-15.1,15.2"/>
		</g>
	</g>
	<g id="svg_175">
		
			<path id="svg_176" fill="none" stroke="#C6C6C5" stroke-width="3" stroke-linecap="round" stroke-linejoin="round" stroke-miterlimit="10" d="
			M546.2,40.6c0.5-8.3-4.8-17.2-16.9-15.1c4.7,5.2,4.9,11,1.7,14.6c-3.5,4-9.9,5.4-15.5,2.2c0.3,4.5,3.5,11.5,11.7,13.3
			c1.3,0.3,2.7,0.4,4,0.3"/>
		<g id="svg_177">
			
				<path id="svg_178" fill="none" stroke="#339CD4" stroke-width="3" stroke-linecap="round" stroke-linejoin="round" stroke-miterlimit="10" d="
				M543.1,58.9c-5.7-6.4-17.6-3.2-15.1,6.3c-1.9-2.1-6.6,0.5-6.6,4.1c0,3.8,2.9,5.5,5.8,5.5h48.4c7.1,0,12-10.3,6.6-17.7
				c-4.6-6.3-16.4-9.2-22.5,2"/>
			
				<path id="svg_179" fill="none" stroke="#339CD4" stroke-width="3" stroke-linecap="round" stroke-linejoin="round" stroke-miterlimit="10" d="
				M569.8,50.6c-1.7-7.8-9.6-10.6-16.3-10.4c-7.9,0.3-15.5,6.2-15.1,15.2"/>
		</g>
	</g>
	<g id="svg_180">
		
			<path id="svg_181" fill="#FFFFFF" stroke="#339CD4" stroke-width="3" stroke-linecap="round" stroke-linejoin="round" stroke-miterlimit="10" d="
			M132.8,167.1c-2.1,4.5-3.5,7.5-5.8,11.6"/>
		
			<path id="svg_182" fill="#FFFFFF" stroke="#339CD4" stroke-width="3" stroke-linecap="round" stroke-linejoin="round" stroke-miterlimit="10" d="
			M144.8,167.1c-1.6,3.1-7.3,15.1-8.6,17.8"/>
		
			<path id="svg_183" fill="#FFFFFF" stroke="#339CD4" stroke-width="3" stroke-linecap="round" stroke-linejoin="round" stroke-miterlimit="10" d="
			M156.6,167.1c-2.2,5.2-6.6,15.3-7.6,17.8"/>
		
			<path id="svg_184" fill="#FFFFFF" stroke="#339CD4" stroke-width="3" stroke-linecap="round" stroke-linejoin="round" stroke-miterlimit="10" d="
			M168.8,167.1c-2.1,4.4-5.3,11.2-6.1,13.5"/>
		<g id="svg_185">
			
				<path id="svg_186" fill="none" stroke="#FBB920" stroke-width="3" stroke-linecap="round" stroke-linejoin="round" stroke-miterlimit="10" d="
				M144.2,125.6c-3.5-4.8-10.9-6.8-17-2.5c-3.8,2.7-5.3,7.6-3.8,12.4c1.1,3.5,3.9,5.9,7.2,6.9"/>
			
				<path id="svg_187" fill="none" stroke="#FBB920" stroke-width="3" stroke-linecap="round" stroke-linejoin="round" stroke-miterlimit="10" d="
				M134.3,118.7c0.2-1.8,0-2.1,0.1-3.7"/>
			
				<path id="svg_188" fill="none" stroke="#FBB920" stroke-width="3" stroke-linecap="round" stroke-linejoin="round" stroke-miterlimit="10" d="
				M120.8,132.1c-0.9,0.1-3.2,0.1-4.1,0.1"/>
			
				<path id="svg_189" fill="none" stroke="#FBB920" stroke-width="3" stroke-linecap="round" stroke-linejoin="round" stroke-miterlimit="10" d="
				M144.1,123.2c0.9-0.6,2.2-1.6,3.3-2.8"/>
			
				<path id="svg_190" fill="none" stroke="#FBB920" stroke-width="3" stroke-linecap="round" stroke-linejoin="round" stroke-miterlimit="10" d="
				M125.2,123.5c-1.1-0.8-3.4-2.6-3.9-3.1"/>
			
				<path id="svg_191" fill="none" stroke="#FBB920" stroke-width="3" stroke-linecap="round" stroke-linejoin="round" stroke-miterlimit="10" d="
				M124.8,140.7c-0.6,0.7-2,1.9-3.3,2.9"/>
		</g>
		<g id="svg_192">
			
				<path id="svg_193" fill="none" stroke="#329CD5" stroke-width="3" stroke-linecap="round" stroke-linejoin="round" stroke-miterlimit="10" d="
				M143.5,143.4c-5.6-6.3-15.7-2.8-14.2,5.2c-3.7-0.2-7.1,1.4-7.1,5c0,3.8,2.9,5.3,5.7,5.3h46.7c7,0,11.8-10,6.5-17.3
				c-4.5-6.2-16.2-9-22.2,2"/>
			
				<path id="svg_194" fill="none" stroke="#329CD5" stroke-width="3" stroke-linecap="round" stroke-linejoin="round" stroke-miterlimit="10" d="
				M168.9,135.4c-1.7-7.7-9.4-10.4-16.1-10.2c-7.8,0.3-15.3,6.1-14.8,14.9"/>
		</g>
	</g>
	<g id="svg_195">
		
			<path id="svg_196" fill="none" stroke="#C6C6C5" stroke-width="3" stroke-linecap="round" stroke-linejoin="round" stroke-miterlimit="10" d="
			M245,125.4c-1.3-5.9-6.1-10.8-14.9-9.2c4.3,4.7,4.4,9.9,1.6,13.2c-3.2,3.6-8.9,4.9-14,1.9c0.3,4,3.2,10.3,10.5,12"/>
		<g id="svg_197">
			
				<path id="svg_198" fill="none" stroke="#329CD5" stroke-width="3" stroke-linecap="round" stroke-linejoin="round" stroke-miterlimit="10" d="
				M242.5,142.7c-5.6-6.3-15.7-2.8-14.2,5.2c-3.7-0.2-7.1,1.4-7.1,5c0,3.8,2.9,5.3,5.7,5.3h46.7c7,0,11.8-10,6.5-17.3
				c-4.5-6.2-16.2-9-22.2,2"/>
			
				<path id="svg_199" fill="none" stroke="#329CD5" stroke-width="3" stroke-linecap="round" stroke-linejoin="round" stroke-miterlimit="10" d="
				M267.8,134.6c-1.7-7.7-9.4-10.4-16.1-10.2c-7.8,0.3-15.3,6.1-14.8,14.9"/>
		</g>
		
			<path id="svg_200" fill="none" stroke="#339CD4" stroke-width="3" stroke-linecap="round" stroke-linejoin="round" stroke-miterlimit="10" d="
			M232.7,166.3c-2.1,4.5-3.5,7.5-5.8,11.6"/>
		
			<path id="svg_201" fill="none" stroke="#339CD4" stroke-width="3" stroke-linecap="round" stroke-linejoin="round" stroke-miterlimit="10" d="
			M244.7,166.3c-1.6,3.1-7.3,15.1-8.6,17.8"/>
		
			<path id="svg_202" fill="none" stroke="#339CD4" stroke-width="3" stroke-linecap="round" stroke-linejoin="round" stroke-miterlimit="10" d="
			M256.5,166.3c-2.2,5.2-6.6,15.3-7.6,17.8"/>
		
			<path id="svg_203" fill="none" stroke="#339CD4" stroke-width="3" stroke-linecap="round" stroke-linejoin="round" stroke-miterlimit="10" d="
			M268.7,166.3c-2.1,4.4-5.3,11.2-6.1,13.5"/>
	</g>
	<g id="svg_204">
		
			<path id="svg_205" fill="#FFFFFF" stroke="#339CD4" stroke-width="3" stroke-linecap="round" stroke-linejoin="round" stroke-miterlimit="10" d="
			M332.8,167.1c-2.1,4.5-3.5,7.5-5.8,11.6"/>
		
			<path id="svg_206" fill="#FFFFFF" stroke="#339CD4" stroke-width="3" stroke-linecap="round" stroke-linejoin="round" stroke-miterlimit="10" d="
			M344.8,167.1c-1.6,3.1-7.3,15.1-8.6,17.8"/>
		<g id="svg_207">
			
				<path id="svg_208" fill="none" stroke="#FBB920" stroke-width="3" stroke-linecap="round" stroke-linejoin="round" stroke-miterlimit="10" d="
				M344.2,125.6c-3.5-4.8-10.9-6.8-17-2.5c-3.8,2.7-5.3,7.6-3.8,12.4c1.1,3.5,3.9,5.9,7.2,6.9"/>
			
				<path id="svg_209" fill="none" stroke="#FBB920" stroke-width="3" stroke-linecap="round" stroke-linejoin="round" stroke-miterlimit="10" d="
				M334.3,118.7c0.2-1.8,0-2.1,0.1-3.7"/>
			
				<path id="svg_210" fill="none" stroke="#FBB920" stroke-width="3" stroke-linecap="round" stroke-linejoin="round" stroke-miterlimit="10" d="
				M320.8,132.1c-0.9,0.1-3.2,0.1-4.1,0.1"/>
			
				<path id="svg_211" fill="none" stroke="#FBB920" stroke-width="3" stroke-linecap="round" stroke-linejoin="round" stroke-miterlimit="10" d="
				M344.1,123.2c0.9-0.6,2.2-1.6,3.3-2.8"/>
			
				<path id="svg_212" fill="none" stroke="#FBB920" stroke-width="3" stroke-linecap="round" stroke-linejoin="round" stroke-miterlimit="10" d="
				M325.2,123.5c-1.1-0.8-3.4-2.7-3.9-3.1"/>
			
				<path id="svg_213" fill="none" stroke="#FBB920" stroke-width="3" stroke-linecap="round" stroke-linejoin="round" stroke-miterlimit="10" d="
				M324.8,140.7c-0.6,0.7-2,1.9-3.3,2.9"/>
		</g>
		<g id="svg_214">
			
				<path id="svg_215" fill="none" stroke="#329CD5" stroke-width="3" stroke-linecap="round" stroke-linejoin="round" stroke-miterlimit="10" d="
				M343.5,143.4c-5.6-6.3-15.7-2.8-14.2,5.2c-3.7-0.2-7.1,1.4-7.1,5c0,3.8,2.9,5.3,5.7,5.3h46.7c7,0,11.8-10,6.5-17.3
				c-4.5-6.2-16.2-9-22.2,2"/>
			
				<path id="svg_216" fill="none" stroke="#329CD5" stroke-width="3" stroke-linecap="round" stroke-linejoin="round" stroke-miterlimit="10" d="
				M368.9,135.4c-1.7-7.7-9.4-10.4-16.1-10.2c-7.8,0.3-15.3,6.1-14.8,14.9"/>
		</g>
		<g id="svg_217">
			
				<path id="svg_218" fill="none" stroke="#9BB3D0" stroke-width="3" stroke-linecap="round" stroke-linejoin="round" stroke-miterlimit="10" d="
				M360.6,182.2c0,1.6,0,2-0.1,2.7"/>
			
				<path id="svg_219" fill="none" stroke="#9BB3D0" stroke-width="3" stroke-linecap="round" stroke-linejoin="round" stroke-miterlimit="10" d="
				M360.7,170.6c0,0.5,0,1.9,0,2.7"/>
			
				<path id="svg_220" fill="none" stroke="#9BB3D0" stroke-width="3" stroke-linecap="round" stroke-linejoin="round" stroke-miterlimit="10" d="
				M364.6,180.3c1.8,1,2,1,2.8,1.5"/>
			
				<path id="svg_221" fill="none" stroke="#9BB3D0" stroke-width="3" stroke-linecap="round" stroke-linejoin="round" stroke-miterlimit="10" d="
				M353.7,174c0.7,0.5,1,0.5,2.9,1.5"/>
			
				<path id="svg_222" fill="none" stroke="#9BB3D0" stroke-width="3" stroke-linecap="round" stroke-linejoin="round" stroke-miterlimit="10" d="
				M364.7,175.5c0.4-0.2,2.3-1.3,2.8-1.6"/>
			
				<path id="svg_223" fill="none" stroke="#9BB3D0" stroke-width="3" stroke-linecap="round" stroke-linejoin="round" stroke-miterlimit="10" d="
				M353.9,181.5c1-0.6,1.6-0.9,2.5-1.5"/>
		</g>
	</g>
	<g id="svg_224">
		
			<path id="svg_225" fill="#FFFFFF" stroke="#339CD4" stroke-width="3" stroke-linecap="round" stroke-linejoin="round" stroke-miterlimit="10" d="
			M530,162.1c-2.1,4.5-3.5,7.5-5.8,11.6"/>
		
			<path id="svg_226" fill="#FFFFFF" stroke="#339CD4" stroke-width="3" stroke-linecap="round" stroke-linejoin="round" stroke-miterlimit="10" d="
			M542,162.1c-1.6,3.1-7.3,15.1-8.6,17.8"/>
		<g id="svg_227">
			
				<path id="svg_228" fill="none" stroke="#329CD5" stroke-width="3" stroke-linecap="round" stroke-linejoin="round" stroke-miterlimit="10" d="
				M540.8,138.4c-5.6-6.3-15.7-2.8-14.2,5.2c-3.7-0.2-7.2,1.4-7.2,5c0,3.8,2.9,5.3,5.7,5.3h46.7c7,0,11.8-10,6.5-17.3
				c-4.5-6.2-16.2-9-22.2,2"/>
			
				<path id="svg_229" fill="none" stroke="#329CD5" stroke-width="3" stroke-linecap="round" stroke-linejoin="round" stroke-miterlimit="10" d="
				M566.1,130.3c-1.7-7.7-9.4-10.4-16.1-10.2c-7.8,0.3-15.3,6.1-14.8,14.9"/>
		</g>
		<g id="svg_230">
			
				<path id="svg_231" fill="none" stroke="#9BB3D0" stroke-width="3" stroke-linecap="round" stroke-linejoin="round" stroke-miterlimit="10" d="
				M557.8,177.2c0,1.6,0,2-0.1,2.7"/>
			
				<path id="svg_232" fill="none" stroke="#9BB3D0" stroke-width="3" stroke-linecap="round" stroke-linejoin="round" stroke-miterlimit="10" d="
				M558,165.6c0,0.5,0,1.9,0,2.7"/>
			
				<path id="svg_233" fill="none" stroke="#9BB3D0" stroke-width="3" stroke-linecap="round" stroke-linejoin="round" stroke-miterlimit="10" d="
				M561.9,175.2c1.8,1,2,1,2.8,1.5"/>
			
				<path id="svg_234" fill="none" stroke="#9BB3D0" stroke-width="3" stroke-linecap="round" stroke-linejoin="round" stroke-miterlimit="10" d="
				M550.9,169c0.7,0.5,1.1,0.5,2.9,1.5"/>
			
				<path id="svg_235" fill="none" stroke="#9BB3D0" stroke-width="3" stroke-linecap="round" stroke-linejoin="round" stroke-miterlimit="10" d="
				M561.9,170.4c0.4-0.2,2.3-1.3,2.8-1.6"/>
			
				<path id="svg_236" fill="none" stroke="#9BB3D0" stroke-width="3" stroke-linecap="round" stroke-linejoin="round" stroke-miterlimit="10" d="
				M551.1,176.5c1-0.6,1.6-0.9,2.5-1.5"/>
		</g>
	</g>
	<g id="svg_237">
		
			<path id="svg_238" fill="#FFFFFF" stroke="#339CD4" stroke-width="3" stroke-linecap="round" stroke-linejoin="round" stroke-miterlimit="10" d="
			M435.1,167.9c-2.1,4.5-3.5,7.5-5.8,11.6"/>
		
			<path id="svg_239" fill="#FFFFFF" stroke="#339CD4" stroke-width="3" stroke-linecap="round" stroke-linejoin="round" stroke-miterlimit="10" d="
			M447.1,167.9c-1.6,3.1-7.3,15.1-8.6,17.8"/>
		
			<path id="svg_240" fill="none" stroke="#C6C6C5" stroke-width="3" stroke-linecap="round" stroke-linejoin="round" stroke-miterlimit="10" d="
			M445.6,127.8c0-8.2-6.7-15.1-17.2-13.2c4.9,5.3,5.1,11.3,1.9,15c-3.6,4.2-10.1,5.6-15.9,2.3c0.3,4.6,3.7,11.8,12,13.6
			c1.6,0.4,3.2,0.4,4.8,0.2"/>
		<g id="svg_241">
			
				<path id="svg_242" fill="none" stroke="#329CD5" stroke-width="3" stroke-linecap="round" stroke-linejoin="round" stroke-miterlimit="10" d="
				M445.8,144.3c-5.6-6.3-15.7-2.8-14.2,5.2c-3.7-0.2-7.1,1.4-7.1,5c0,3.8,2.9,5.3,5.7,5.3h46.7c7,0,11.8-10,6.5-17.3
				c-4.5-6.2-16.2-9-22.2,2"/>
			
				<path id="svg_243" fill="none" stroke="#329CD5" stroke-width="3" stroke-linecap="round" stroke-linejoin="round" stroke-miterlimit="10" d="
				M471.1,136.2c-1.7-7.7-9.4-10.4-16.1-10.2c-7.8,0.3-15.3,6.1-14.8,14.9"/>
		</g>
		<g id="svg_244">
			
				<path id="svg_245" fill="none" stroke="#9BB3D0" stroke-width="3" stroke-linecap="round" stroke-linejoin="round" stroke-miterlimit="10" d="
				M462.8,183.1c0,1.6,0,2-0.1,2.7"/>
			
				<path id="svg_246" fill="none" stroke="#9BB3D0" stroke-width="3" stroke-linecap="round" stroke-linejoin="round" stroke-miterlimit="10" d="
				M463,171.5c0,0.5,0,1.9,0,2.7"/>
			
				<path id="svg_247" fill="none" stroke="#9BB3D0" stroke-width="3" stroke-linecap="round" stroke-linejoin="round" stroke-miterlimit="10" d="
				M466.9,181.1c1.8,1,2,1,2.8,1.5"/>
			
				<path id="svg_248" fill="none" stroke="#9BB3D0" stroke-width="3" stroke-linecap="round" stroke-linejoin="round" stroke-miterlimit="10" d="
				M456,174.9c0.7,0.5,1,0.5,2.9,1.5"/>
			
				<path id="svg_249" fill="none" stroke="#9BB3D0" stroke-width="3" stroke-linecap="round" stroke-linejoin="round" stroke-miterlimit="10" d="
				M467,176.3c0.4-0.2,2.3-1.3,2.8-1.6"/>
			
				<path id="svg_250" fill="none" stroke="#9BB3D0" stroke-width="3" stroke-linecap="round" stroke-linejoin="round" stroke-miterlimit="10" d="
				M456.2,182.4c1-0.6,1.6-0.9,2.5-1.5"/>
		</g>
	</g>
	<g id="svg_251">
		
			<path id="svg_252" fill="none" stroke="#329CD5" stroke-width="3" stroke-linecap="round" stroke-linejoin="round" stroke-miterlimit="10" d="
			M640.8,237.8c-5.6-6.3-15.7-2.8-14.2,5.2c-3.7-0.2-7.1,1.4-7.1,5c0,3.8,2.9,5.3,5.7,5.3h46.7c7,0,11.8-10,6.5-17.3
			c-4.5-6.2-16.2-9-22.2,2"/>
		
			<path id="svg_253" fill="none" stroke="#329CD5" stroke-width="3" stroke-linecap="round" stroke-linejoin="round" stroke-miterlimit="10" d="
			M666.1,229.7c-1.7-7.7-9.4-10.4-16.1-10.2c-7.8,0.3-15.3,6.1-14.8,14.9"/>
		
			<line id="svg_254" fill="none" stroke="#339CD4" stroke-width="2" stroke-linecap="round" stroke-linejoin="round" stroke-miterlimit="10" x1="635.3" y1="262.2" x2="635" y2="262.9"/>
		
			<line id="svg_255" fill="none" stroke="#339CD4" stroke-width="2" stroke-linecap="round" stroke-linejoin="round" stroke-miterlimit="10" x1="630.9" y1="270.7" x2="630.5" y2="271.5"/>
		
			<line id="svg_256" fill="none" stroke="#339CD4" stroke-width="2" stroke-linecap="round" stroke-linejoin="round" stroke-miterlimit="10" x1="647.4" y1="262.2" x2="647" y2="262.9"/>
		
			<line id="svg_257" fill="none" stroke="#339CD4" stroke-width="2" stroke-linecap="round" stroke-linejoin="round" stroke-miterlimit="10" x1="638.3" y1="279.8" x2="637.9" y2="280.5"/>
		
			<line id="svg_258" fill="none" stroke="#339CD4" stroke-width="2" stroke-linecap="round" stroke-linejoin="round" stroke-miterlimit="10" x1="654.9" y1="270.7" x2="654.6" y2="271.5"/>
		
			<line id="svg_259" fill="none" stroke="#339CD4" stroke-width="2" stroke-linecap="round" stroke-linejoin="round" stroke-miterlimit="10" x1="650.2" y1="279.8" x2="649.9" y2="280.5"/>
		
			<line id="svg_260" fill="none" stroke="#339CD4" stroke-width="2" stroke-linecap="round" stroke-linejoin="round" stroke-miterlimit="10" x1="670.9" y1="262.2" x2="670.5" y2="262.9"/>
		
			<line id="svg_261" fill="none" stroke="#339CD4" stroke-width="2" stroke-linecap="round" stroke-linejoin="round" stroke-miterlimit="10" x1="666.4" y1="270.7" x2="666.1" y2="271.5"/>
		
			<line id="svg_262" fill="none" stroke="#339CD4" stroke-width="2" stroke-linecap="round" stroke-linejoin="round" stroke-miterlimit="10" x1="622.7" y1="262.2" x2="622.4" y2="262.9"/>
	</g>
</g>
</svg>
